<?xml version="1.0" encoding="UTF-8" standalone="no"?>
<!-- Created with Inkscape (http://www.inkscape.org/) -->

<svg
   xmlns:dc="http://purl.org/dc/elements/1.1/"
   xmlns:cc="http://creativecommons.org/ns#"
   xmlns:rdf="http://www.w3.org/1999/02/22-rdf-syntax-ns#"
   xmlns:svg="http://www.w3.org/2000/svg"
   xmlns="http://www.w3.org/2000/svg"
   xmlns:sodipodi="http://sodipodi.sourceforge.net/DTD/sodipodi-0.dtd"
   xmlns:inkscape="http://www.inkscape.org/namespaces/inkscape"
   width="162.63055mm"
   height="180.37332mm"
   viewBox="0 0 162.63055 180.37332"
   version="1.1"
   id="svg4540"
   inkscape:version="0.92.4 (5da689c313, 2019-01-14)"
   sodipodi:docname="cat-logo.svg">
  <defs
     id="defs4534" />
  <sodipodi:namedview
     id="base"
     pagecolor="#ffffff"
     bordercolor="#666666"
     borderopacity="1.0"
     inkscape:pageopacity="0.0"
     inkscape:pageshadow="2"
     inkscape:zoom="0.35"
     inkscape:cx="-704.76191"
     inkscape:cy="389.76668"
     inkscape:document-units="mm"
     inkscape:current-layer="layer1"
     showgrid="false"
     inkscape:window-width="1920"
     inkscape:window-height="1017"
     inkscape:window-x="-8"
     inkscape:window-y="-8"
     inkscape:window-maximized="1" />
  <metadata
     id="metadata4537">
    <rdf:RDF>
      <cc:Work
         rdf:about="">
        <dc:format>image/svg+xml</dc:format>
        <dc:type
           rdf:resource="http://purl.org/dc/dcmitype/StillImage" />
        <dc:title></dc:title>
      </cc:Work>
    </rdf:RDF>
  </metadata>
  <g
     inkscape:label="Layer 1"
     inkscape:groupmode="layer"
     id="layer1"
     transform="translate(-212.92659,-71.585787)">
    <path
       style="fill:#000000;stroke-width:0.35277778"
       d="m 234.48843,251.62496 c -11.41588,-1.42477 -18.38684,-6.87856 -18.38684,-14.38511 0,-5.01337 2.11301,-9.62121 6.35874,-13.86651 l 3.04622,-3.0459 -0.68154,-1.7166 c -0.37485,-0.94413 -1.06429,-3.21357 -1.53209,-5.0432 -0.46781,-1.82963 -0.91143,-3.38747 -0.98583,-3.46187 -0.0744,-0.0744 -1.41818,0.50975 -2.98617,1.29813 -1.56799,0.78837 -3.18413,1.4334 -3.59142,1.4334 -1.0269,0 -2.80291,-1.86567 -2.80291,-2.94441 0,-1.81193 2.18077,-3.36181 8.14691,-5.79002 0.87216,-0.35497 0.92592,-0.53481 1.14913,-3.84467 0.21188,-3.14188 1.21904,-8.95382 1.80058,-10.39043 0.28723,-0.70959 -1.25023,-1.00989 -5.19893,-1.01548 -1.59282,-0.002 -3.25989,-0.21887 -3.97099,-0.51598 -2.05154,-0.85719 -2.44333,-3.20461 -0.80782,-4.84012 0.71431,-0.71431 0.98122,-0.73905 5.90005,-0.5468 2.83355,0.11074 5.39002,0.28596 5.68107,0.38938 0.39239,0.13942 1.12262,-1.02101 2.82525,-4.48966 l 2.29608,-4.67768 -1.13767,-4.0386 c -2.73965,-9.72548 -4.33644,-19.44811 -4.33644,-26.40395 0,-5.47393 0.36784,-7.62839 1.80345,-10.56284 1.1899,-2.43222 3.19593,-4.07069 5.51697,-4.50612 2.39631,-0.44954 8.99376,1.10286 12.68079,2.98384 l 1.46685,0.74833 1.26245,-1.71979 c 0.69435,-0.94589 2.65802,-3.04666 4.36372,-4.66837 8.28441,-7.87653 19.84285,-13.10734 33.00343,-14.93582 l 1.71295,-0.23799 -0.23416,-2.00127 c -0.12878,-1.1007 -0.54242,-3.63652 -0.91919,-5.63515 -0.81438,-4.320005 -0.86321,-7.190886 -0.18279,-10.747132 1.82102,-9.517621 8.13609,-17.116169 16.5318,-19.891728 2.51862,-0.832638 3.47503,-0.959444 7.30762,-0.968882 5.24562,-0.01292 8.22738,0.701619 13.31349,3.190389 4.99509,2.44423 8.31405,5.022474 9.4474,7.338954 1.76442,3.606339 1.05601,7.757697 -1.79413,10.51392 -1.91476,1.851659 -3.79145,2.493527 -6.79446,2.323842 -2.10159,-0.11875 -2.7364,-0.325402 -4.51643,-1.470233 -1.13913,-0.732634 -3.26178,-1.916367 -4.71699,-2.630518 -2.17402,-1.066914 -3.03535,-1.299561 -4.8302,-1.304651 -2.02008,-0.0057 -2.28111,0.08667 -3.4705,1.228528 -2.7173,2.608704 -3.39218,5.302575 -2.46602,9.843451 0.32901,1.61309 0.78268,4.70165 1.00815,6.86347 0.3963,3.7996 0.43935,3.93428 1.29191,4.04156 1.58051,0.19889 7.67757,1.79547 10.12933,2.65248 10.09862,3.52995 19.26718,9.83104 24.58161,16.89368 l 0.98777,1.3127 1.45846,-0.74405 c 2.3442,-1.19592 6.05272,-2.34625 9.0366,-2.80303 3.6608,-0.56041 5.58497,-0.0584 7.63536,1.99197 4.96148,4.96148 4.67946,18.58001 -0.80416,38.83255 l -1.25229,4.62506 2.24768,4.62427 c 1.67293,3.44177 2.38301,4.57519 2.77686,4.43235 0.29104,-0.10555 2.84752,-0.28252 5.68106,-0.39326 4.91884,-0.19225 5.18574,-0.16751 5.90005,0.5468 1.63551,1.63551 1.24372,3.98293 -0.80782,4.84012 -0.71109,0.29711 -2.37817,0.51373 -3.97099,0.51598 -3.9487,0.006 -5.48616,0.30589 -5.19892,1.01548 0.58188,1.43748 1.58876,7.24948 1.8009,10.39542 0.23103,3.42592 0.24941,3.48248 1.24389,3.82916 2.52267,0.87941 6.59627,3.1091 7.28884,3.98956 0.41964,0.53349 0.76299,1.35766 0.76299,1.83149 0,1.05008 -1.78538,2.9239 -2.7859,2.9239 -0.39792,0 -2.01026,-0.64883 -3.58297,-1.44185 -1.57271,-0.79302 -2.92414,-1.37718 -3.00319,-1.29813 -0.0791,0.079 -0.52647,1.64069 -0.99427,3.47032 -0.4678,1.82963 -1.15724,4.09907 -1.53209,5.0432 l -0.68154,1.7166 3.04621,3.0459 c 4.24573,4.2453 6.35875,8.85314 6.35875,13.86651 0,9.40646 -11.16015,15.46286 -26.9875,14.64562 -4.82636,-0.24921 -8.56715,-1.20385 -12.81584,-3.27057 l -3.29084,-1.60079 -4.1175,1.06605 c -10.52985,2.72624 -18.71963,3.70814 -30.9286,3.70814 -12.24252,0 -20.5984,-1.00519 -30.90643,-3.71798 l -4.09532,-1.07778 -3.31301,1.61157 c -4.83393,2.35141 -7.96677,3.07829 -13.89635,3.22422 -2.71639,0.0669 -6.11043,-0.0247 -7.54232,-0.20337 z m 7.01425,-6.15628 c 1.33665,-0.69121 1.75831,-2.24848 1.76083,-6.50309 0.002,-2.93053 0.0937,-3.42631 0.76901,-4.14514 1.01186,-1.07706 2.94204,-1.10056 4.06091,-0.0494 0.77488,0.72797 0.81649,1.00855 0.81649,5.5063 v 4.73925 l 0.97014,-0.23923 c 3.88826,-0.95885 7.58261,-3.87775 8.04805,-6.35874 0.64087,-3.41615 -0.95174,-7.28428 -4.43208,-10.76463 -7.66152,-7.66152 -19.07328,-7.66152 -26.83813,0 -3.49688,3.45035 -5.23706,7.83406 -4.41308,11.11706 0.54843,2.18514 4.52111,5.1448 7.96788,5.9361 l 0.88194,0.20247 v -4.541 c 0,-4.32001 0.0416,-4.58538 0.85525,-5.45281 1.13977,-1.21516 2.91059,-1.23499 4.09968,-0.0459 0.81039,0.81039 0.8659,1.10555 0.8659,4.60363 0,4.0663 0.46581,5.60225 1.87056,6.16796 1.11812,0.45029 1.56695,0.42174 2.71665,-0.17279 z m 67.0408,-0.32575 c 4.40312,-0.52927 9.10451,-1.36677 14.04303,-2.50161 2.52481,-0.58018 2.58613,-0.61976 2.36992,-1.52967 -0.52533,-2.21079 -0.61883,-5.71435 -0.2004,-7.50944 0.24246,-1.04021 1.05917,-3.09317 1.8149,-4.56212 3.03141,-5.89228 8.76424,-10.43962 15.52215,-12.31233 3.52541,-0.97694 9.0592,-0.9813 12.5646,-0.01 1.40035,0.38806 2.68581,0.70556 2.85659,0.70556 0.42462,0 2.06683,-5.06599 2.36096,-7.28322 l 0.23914,-1.80274 -2.24459,-0.39026 c -3.26459,-0.56762 -8.609,-1.09396 -11.17936,-1.101 -1.99249,-0.005 -2.34266,-0.11677 -3.26319,-1.03731 -1.49337,-1.49336 -1.21899,-3.66314 0.58533,-4.62879 1.022,-0.54695 7.82397,-0.25167 12.80849,0.55604 1.82189,0.29522 3.39703,0.45227 3.50031,0.34898 0.28065,-0.28064 -0.60763,-6.60185 -1.30627,-9.29573 l -0.61036,-2.35346 -1.21338,0.12109 c -3.05383,0.30475 -10.35185,3.21355 -14.84147,5.91542 -2.53285,1.52427 -3.82404,1.55248 -5.03777,0.11003 -1.2758,-1.5162 -1.17661,-2.6399 0.36102,-4.09007 1.8004,-1.698 9.55784,-5.43169 13.72799,-6.60735 5.33619,-1.5044 4.92513,-1.08707 3.67363,-3.72971 -0.59474,-1.25585 -1.62701,-3.18162 -2.29392,-4.27948 -0.66692,-1.09786 -1.21258,-2.37497 -1.21258,-2.83802 0,-0.46305 0.53471,-2.66479 1.18825,-4.89275 4.47204,-15.24552 5.91149,-29.22088 3.51491,-34.12556 -0.6377,-1.30506 -0.67188,-1.32167 -2.59356,-1.2602 -4.63523,0.14828 -15.4356,5.60267 -26.50498,13.3855 -3.17861,2.23487 -3.87909,2.31993 -7.1221,0.8649 -3.47575,-1.55947 -9.45297,-3.40241 -13.99085,-4.31377 -3.4835,-0.69961 -5.12904,-0.81503 -11.64167,-0.81658 -10.28081,-0.002 -15.59771,0.9934 -24.52977,4.59434 -2.14075,0.86303 -4.27811,1.56915 -4.7497,1.56915 -0.48823,0 -2.76172,-1.27359 -5.27995,-2.9578 -11.61806,-7.77021 -18.37384,-11.25509 -23.68682,-12.21852 -2.71606,-0.49251 -3.24642,-0.29581 -4.05721,1.50476 -0.57626,1.27972 -0.66636,2.3504 -0.65991,7.84141 0.01,8.11504 1.17716,15.04375 4.39906,26.10391 0.58384,2.00422 1.06152,4.07582 1.06152,4.60357 0,0.52775 -0.53794,1.85344 -1.19543,2.94597 -1.41959,2.35889 -3.48326,6.42927 -3.32558,6.55938 0.0612,0.0505 1.85754,0.59962 3.99185,1.22025 6.31561,1.83648 14.5528,6.08374 15.39846,7.93976 0.80715,1.77151 -0.68193,4.08231 -2.63064,4.08231 -0.56863,0 -1.95882,-0.56188 -3.08934,-1.24863 -4.35765,-2.64713 -11.74961,-5.55432 -14.94676,-5.8784 -1.00061,-0.10143 -1.05526,-0.0268 -1.64735,2.24857 -0.69945,2.68799 -1.58983,9.01421 -1.30831,9.29572 0.10328,0.10329 1.67842,-0.0538 3.5003,-0.34898 4.98453,-0.80771 11.7865,-1.10299 12.80849,-0.55603 1.80432,0.96564 2.0787,3.13542 0.58534,4.62878 -0.92054,0.92054 -1.27071,1.03185 -3.2632,1.03731 -2.57036,0.007 -7.91476,0.53338 -11.17936,1.101 l -2.24459,0.39026 0.23915,1.80274 c 0.13152,0.99151 0.65119,3.04948 1.1548,4.57326 1.02241,3.09347 0.61619,2.92433 4.49226,1.8705 3.06242,-0.83261 8.85946,-0.76391 12.13508,0.14381 11.44002,3.17019 19.61117,14.26792 17.29066,23.4835 -0.21893,0.86947 -0.32145,1.65745 -0.22782,1.75107 0.30901,0.30902 9.54925,2.21478 13.50227,2.78478 2.13431,0.30776 5.62681,0.70459 7.76111,0.88185 5.24403,0.43552 18.39105,0.16734 23.82662,-0.48603 z m -25.64164,-11.49265 c -3.58583,-0.74163 -7.17577,-3.62919 -8.69358,-6.99268 -0.54899,-1.21655 -0.78138,-2.57537 -0.88543,-5.17725 -0.12824,-3.20677 -0.0714,-3.61605 0.625,-4.49791 0.76864,-0.97339 2.30499,-1.28543 3.69767,-0.751 0.99459,0.38166 1.60331,2.10427 1.60331,4.53717 0,2.77162 0.57033,4.29535 2.08473,5.56963 2.31056,1.94421 5.47752,1.97525 7.73486,0.0758 1.8986,-1.59756 2.17485,-2.7097 2.17485,-8.75561 0,-5.04325 -0.0525,-5.49583 -0.65999,-5.68864 -0.363,-0.11521 -2.23877,-1.83246 -4.16838,-3.81613 -2.77015,-2.84775 -3.58843,-3.9223 -3.8888,-5.10672 -0.73237,-2.88793 0.59694,-5.74584 3.37619,-7.25849 1.70266,-0.92671 1.84532,-0.94284 8.33959,-0.94284 6.51081,0 6.63285,0.0139 8.35714,0.95239 3.16199,1.72097 4.44897,5.42788 2.89883,8.34954 -0.81547,1.53698 -6.59177,7.50309 -7.56275,7.81127 -0.65168,0.20683 -0.69461,0.55909 -0.69461,5.69962 0,6.04591 0.27625,7.15805 2.17485,8.75561 2.25734,1.89943 5.4243,1.86839 7.73486,-0.0758 1.5144,-1.27428 2.08474,-2.79801 2.08474,-5.56963 0,-2.4329 0.60872,-4.15551 1.6033,-4.53717 1.39269,-0.53443 2.92903,-0.22239 3.69767,0.751 0.69637,0.88186 0.75324,1.29114 0.625,4.49791 -0.16809,4.20356 -0.85605,6.01502 -3.26072,8.5858 -2.27204,2.429 -5.21275,3.70729 -8.48483,3.68826 -2.97739,-0.0173 -5.82029,-1.00449 -7.78584,-2.70357 l -1.36206,-1.17741 -1.68126,1.32896 c -2.62174,2.07237 -6.61709,3.08227 -9.68434,2.44789 z m 14.61209,-29.40465 c 1.57877,-1.54338 2.55273,-2.75818 2.40414,-2.99861 -0.17019,-0.27536 -1.97917,-0.40417 -5.67621,-0.40417 -3.69703,0 -5.50602,0.12881 -5.6762,0.40417 -0.31939,0.51678 4.83235,5.59306 5.6762,5.59306 0.33998,0 1.81241,-1.1675 3.27207,-2.59445 z M 274.4167,191.14127 c -0.41567,-0.29114 -1.02948,-1.35344 -1.36402,-2.36066 -0.76663,-2.30809 -3.25946,-4.88925 -5.31008,-5.49822 -2.41163,-0.71617 -6.13075,-0.5359 -9.20605,0.44624 -3.3439,1.06792 -4.32602,1.0995 -5.32251,0.17113 -1.73872,-1.61987 -1.27975,-3.88796 1.01483,-5.01491 4.06725,-1.99757 11.08161,-2.61293 15.19319,-1.33288 4.03098,1.25495 7.82806,5.0622 9.2555,9.2803 0.77289,2.28388 0.73298,2.61423 -0.45995,3.80716 -1.15699,1.157 -2.59456,1.3468 -3.80091,0.50184 z m 32.81905,-0.3794 c -0.77286,-0.77286 -0.883,-1.13739 -0.73646,-2.4375 0.4108,-3.64459 3.96185,-8.17104 7.95089,-10.13484 2.07451,-1.02128 2.72464,-1.16103 5.95788,-1.28071 3.82632,-0.14165 7.11598,0.4244 10.3463,1.78027 1.93245,0.8111 2.46945,1.46583 2.46945,3.01084 0,1.35881 -1.30698,2.91515 -2.44808,2.91515 -0.39394,0 -2.0858,-0.39688 -3.75967,-0.88195 -3.77772,-1.09474 -7.73733,-1.18399 -9.84364,-0.22189 -1.86986,0.8541 -4.2533,3.4985 -4.80104,5.3267 -0.82158,2.74218 -3.36467,3.69488 -5.13563,1.92393 z m 42.35236,54.89892 c 1.51383,-0.57556 1.98014,-2.03263 1.98014,-6.18728 0,-3.49808 0.0555,-3.79324 0.86591,-4.60363 1.18908,-1.18909 2.95991,-1.16926 4.09968,0.0459 0.81425,0.8681 0.85524,1.13096 0.85524,5.48433 v 4.57252 l 0.88195,-0.21727 c 3.79532,-0.93498 7.4993,-3.88182 7.95897,-6.33204 0.65783,-3.50653 -0.89725,-7.30911 -4.40417,-10.76936 -7.77184,-7.66841 -19.14715,-7.66266 -26.86388,0.0136 -3.46737,3.44918 -5.0512,7.31359 -4.40633,10.75105 0.46901,2.50005 4.19047,5.41805 8.04805,6.31049 l 0.97014,0.22443 v -4.65829 c 0,-4.29724 0.0595,-4.72157 0.76704,-5.47477 1.08555,-1.15551 3.06256,-1.11533 4.19036,0.0852 0.76697,0.8164 0.85755,1.25836 0.95791,4.6743 0.14142,4.81317 0.2423,5.23306 1.40931,5.86628 1.15619,0.62734 1.52637,0.65688 2.68968,0.21458 z m -79.9591,-103.53862 c 15.60755,-6.04073 35.41712,-5.82378 50.76484,0.55596 l 2.51589,1.0458 5.06884,-3.31326 c 2.78786,-1.82229 5.82385,-3.74992 6.74665,-4.28363 l 1.6778,-0.97037 -1.06829,-1.34884 c -1.77352,-2.23924 -6.27306,-6.25456 -9.12561,-8.14354 -15.00636,-9.93731 -36.30915,-11.93369 -54.08993,-5.069 -6.87893,2.65577 -12.63485,6.47102 -17.39249,11.52842 -2.05864,2.18835 -2.61194,2.97561 -2.24575,3.19534 3.38835,2.03318 10.87003,6.82091 11.72488,7.50305 0.60953,0.4864 1.34637,0.81149 1.63741,0.72243 0.29104,-0.0891 1.99463,-0.72913 3.78576,-1.42236 z m 29.20103,-34.14806 c -0.13525,-1.40671 -0.54824,-4.11713 -0.91774,-6.02316 -0.813,-4.193726 -0.83344,-5.467166 -0.13105,-8.163817 1.06897,-4.104047 3.91747,-7.854284 7.10312,-9.351714 4.33077,-2.035705 10.15441,-0.844401 16.5579,3.387141 1.1393,0.752874 2.23203,1.18974 2.97587,1.18974 2.66595,0 3.81313,-3.139185 1.83831,-5.03039 -1.6888,-1.617292 -6.58716,-4.333552 -9.65371,-5.353218 -3.50046,-1.163947 -7.71006,-1.531104 -10.62025,-0.926287 -6.54482,1.360194 -12.19599,7.123211 -14.03469,14.312447 -0.88558,3.46259 -0.89178,6.525254 -0.0222,10.971248 0.37529,1.91878 0.78359,4.40151 0.90733,5.51717 l 0.22498,2.02847 h 3.00903 3.00903 l -0.24592,-2.55763 z"
       id="path4553"
       inkscape:connector-curvature="0" />
  </g>
</svg>
