<?xml version="1.0" encoding="UTF-8" standalone="no"?>
<!-- Created with Inkscape (http://www.inkscape.org/) -->

<svg
   xmlns:dc="http://purl.org/dc/elements/1.1/"
   xmlns:cc="http://creativecommons.org/ns#"
   xmlns:rdf="http://www.w3.org/1999/02/22-rdf-syntax-ns#"
   xmlns:svg="http://www.w3.org/2000/svg"
   xmlns="http://www.w3.org/2000/svg"
   xmlns:sodipodi="http://sodipodi.sourceforge.net/DTD/sodipodi-0.dtd"
   xmlns:inkscape="http://www.inkscape.org/namespaces/inkscape"
   width="225.99753mm"
   height="62.706253mm"
   viewBox="0 0 225.99753 62.706253"
   version="1.1"
   id="svg8"
   inkscape:version="0.92.4 (5da689c313, 2019-01-14)"
   sodipodi:docname="logo_black.svg">
  <defs
     id="defs2" />
  <sodipodi:namedview
     id="base"
     pagecolor="#ffffff"
     bordercolor="#666666"
     borderopacity="1.0"
     inkscape:pageopacity="0.0"
     inkscape:pageshadow="2"
     inkscape:zoom="0.35"
     inkscape:cx="466.42613"
     inkscape:cy="-208.97964"
     inkscape:document-units="mm"
     inkscape:current-layer="layer1"
     showgrid="false"
     inkscape:window-width="1920"
     inkscape:window-height="1017"
     inkscape:window-x="1912"
     inkscape:window-y="-8"
     inkscape:window-maximized="1" />
  <metadata
     id="metadata5">
    <rdf:RDF>
      <cc:Work
         rdf:about="">
        <dc:format>image/svg+xml</dc:format>
        <dc:type
           rdf:resource="http://purl.org/dc/dcmitype/StillImage" />
        <dc:title></dc:title>
      </cc:Work>
    </rdf:RDF>
  </metadata>
  <g
     inkscape:label="Layer 1"
     inkscape:groupmode="layer"
     id="layer1"
     style="display:inline"
     transform="translate(-6.4365001,-181.75506)">
    <path
       style="fill:#000000;stroke:#000000;stroke-width:0.26458335;stroke-opacity:1"
       d="m 73.780951,213.10819 c 0,-27.57547 0.04634,-31.22084 0.396875,-31.22084 0.350536,0 0.396875,3.64537 0.396875,31.22084 0,27.57546 -0.04634,31.22083 -0.396875,31.22083 -0.236497,0 -0.334529,-1.65932 -0.373283,-11.2074 -0.01869,-4.60407 -0.02359,-11.0424 -0.02359,-20.01343 z m 31.088539,19.83939 c -2.8928,-0.44375 -5.365308,-2.22426 -6.792735,-4.89162 -1.359104,-2.53968 -2.497669,-7.05239 -2.836786,-11.24361 -0.278172,-3.43803 -0.256164,-4.25006 0.211939,-7.81907 0.589495,-4.49456 1.107562,-6.12042 2.731175,-8.57131 0.949881,-1.43388 1.404493,-1.84574 2.849957,-2.58194 2.16812,-1.10427 5.49642,-1.45418 6.90473,-0.72591 1.88488,0.97471 3.01997,1.9967 3.44832,3.10474 0.40378,1.04448 0.50818,1.12447 1.64253,1.25859 0.66624,0.0788 1.29284,0.22472 1.39246,0.32433 0.35485,0.35486 -0.4795,0.95943 -1.43392,1.03903 -0.94341,0.0787 -0.9752,0.1163 -1.1522,1.36319 -0.19655,1.38467 -1.17971,3.09896 -2.13632,3.72501 -0.3277,0.21446 -1.07206,0.46566 -1.65415,0.55821 -0.91998,0.14628 -1.1448,0.0761 -1.71979,-0.53711 -1.0004,-1.06684 -0.93373,-2.91993 0.15385,-4.27622 0.44843,-0.55921 1.28186,-1.25487 1.85209,-1.54591 0.57022,-0.29104 1.08256,-0.55512 1.13853,-0.58683 0.056,-0.0317 -0.0419,-0.40444 -0.21744,-0.82828 -0.20283,-0.48968 -0.70547,-0.94481 -1.37873,-1.2484 -1.02665,-0.46296 -1.08831,-0.46228 -1.98726,0.0218 -1.85308,0.99795 -3.26252,5.15827 -3.80142,11.22087 -0.30353,3.41473 0.0196,6.79044 1.11618,11.66143 0.86683,3.8504 1.79635,6.02275 3.11106,7.27075 0.78447,0.74468 0.86901,0.76672 1.52193,0.39688 0.91737,-0.51964 2.26687,-3.01417 3.13972,-5.80374 0.7804,-2.49408 1.16668,-3.08254 1.85112,-2.8199 0.39411,0.15124 0.43373,0.43144 0.29503,2.0867 -0.13567,1.61902 -0.39877,2.39889 -1.71691,5.08928 -1.52311,3.10874 -1.58761,3.19292 -2.99029,3.90261 -1.52319,0.77067 -1.50724,0.76861 -3.54267,0.45639 z m 3.93118,-27.57845 c 0.48859,-0.78295 0.77481,-2.05053 0.46301,-2.05053 -0.33798,0 -1.61606,1.55055 -1.61606,1.96058 0,0.83826 0.65422,0.88929 1.15305,0.0899 z m 53.99577,27.29103 c -0.29626,-0.47935 -0.88797,-8.32189 -0.89898,-11.91516 l -0.0103,-3.34339 -1.24631,-0.1869 c -0.9563,-0.14341 -1.48459,-0.42517 -2.27026,-1.21083 -1.36393,-1.36394 -1.25348,-1.98975 0.33788,-1.91433 0.69569,0.033 1.46906,0.27839 1.9141,0.60742 0.41072,0.30366 0.88135,0.46893 1.04585,0.36726 0.21563,-0.13327 0.25413,-1.77945 0.13794,-5.89909 -0.15732,-5.57872 0.11907,-10.46739 0.64844,-11.46893 0.19252,-0.36424 0.59183,-0.46302 1.87168,-0.46302 2.01557,0 3.58661,0.70529 4.69869,2.10942 0.77762,0.98182 0.79962,1.08801 0.80424,3.88178 0.003,1.57979 0.17907,4.00343 0.39213,5.38588 0.21306,1.38245 0.38952,3.51003 0.39213,4.72796 l 0.005,2.21442 2.84427,-0.17361 c 1.56435,-0.0955 3.45212,-0.24033 4.19504,-0.32189 l 1.35077,-0.14828 0.15274,-4.27378 c 0.17343,-4.85283 1.32449,-13.32843 1.88643,-13.89037 0.20027,-0.20028 0.90967,-0.42563 1.57644,-0.50078 1.51813,-0.17112 4.02719,0.93871 4.41233,1.9517 0.14984,0.39412 0.14637,1.83981 -0.009,3.74247 -0.13923,1.70516 -0.33501,5.0997 -0.43508,7.54343 l -0.18195,4.44314 2.22431,-0.0775 c 2.1526,-0.075 2.22669,-0.0988 2.29837,-0.73897 0.1863,-1.66367 0.30431,-1.85209 1.16,-1.85209 1.19758,0 3.01726,1.24768 3.55327,2.43633 0.36093,0.8004 0.41308,1.39859 0.26588,3.04999 -0.4427,4.96683 -0.45985,5.52824 -0.19008,6.2215 0.36051,0.92641 1.06415,0.93781 2.13752,0.0346 1.20669,-1.01536 1.62279,-2.01616 2.18314,-5.25079 0.66148,-3.81846 1.05082,-4.63957 2.19991,-4.63957 1.31828,0 2.33719,1.30991 2.14648,2.75951 -0.79572,6.04821 -0.83086,7.84687 -0.17355,8.88215 0.41478,0.65329 1.08164,-0.27832 3.31438,-4.6302 l 2.03617,-3.96875 -0.13874,-4.63021 c -0.0763,-2.54662 -0.0587,-5.9399 0.0391,-7.54063 l 0.17786,-2.91041 0.74321,-0.0852 c 0.86831,-0.0996 2.94235,1.43708 3.24544,2.40452 0.10185,0.32512 0.40693,0.87507 0.67795,1.22212 0.27103,0.34704 0.49278,1.00267 0.49278,1.45695 0,0.45428 0.12375,1.24189 0.27502,1.75026 0.15126,0.50836 0.394,2.34211 0.53942,4.075 0.14542,1.73289 0.33048,3.25765 0.41126,3.38834 0.0808,0.1307 0.77474,-0.35619 1.54215,-1.08197 1.74392,-1.64933 2.9332,-2.18074 4.22725,-1.88889 2.02694,0.45715 3.34941,1.93915 4.00139,4.48408 0.39309,1.53438 0.39372,1.84466 0.008,3.76073 -0.23144,1.14861 -0.4208,2.22815 -0.4208,2.39899 0,0.48363 1.22196,-1.27679 2.69884,-3.8881 0.73913,-1.30686 1.99212,-3.03327 2.78442,-3.83646 l 1.44056,-1.46034 -0.43261,1.05833 c -1.59749,3.9081 -5.86879,10.92134 -7.78931,12.78964 -2.23543,2.17464 -2.8096,2.4995 -4.41773,2.4995 -1.79052,0 -2.49388,-0.50863 -2.01461,-1.45685 1.17424,-2.32323 2.34669,-9.1765 2.01921,-11.80278 -0.24845,-1.99249 -0.71099,-2.05485 -2.27654,-0.30693 l -1.27265,1.42091 v 3.90843 c 0,3.26723 -0.0873,4.14165 -0.53187,5.32999 -0.67575,1.80608 -1.40894,2.46906 -2.80191,2.53357 -2.12638,0.0985 -2.89268,-1.48353 -3.17984,-6.56465 l -0.18022,-3.18898 -1.44842,2.63534 c -0.79663,1.44943 -1.85734,3.11306 -2.35712,3.69695 -1.88948,2.20742 -4.22377,2.02207 -5.38505,-0.42759 -0.33295,-0.70233 -0.63849,-1.31944 -0.67898,-1.37135 -0.0405,-0.0519 -0.46771,0.28628 -0.94938,0.75154 -2.26658,2.18934 -5.17757,2.05043 -7.28304,-0.34757 -1.28537,-1.46396 -1.52433,-2.6951 -1.18985,-6.13042 0.15585,-1.60073 0.36936,-3.13242 0.47446,-3.40376 0.17673,-0.45623 0.0874,-0.47909 -1.18674,-0.30384 -2.79897,0.38496 -2.77904,0.36991 -3.00764,2.27103 -0.22413,1.86392 -0.0483,12.853 0.21667,13.54358 0.0907,0.23637 0.42153,0.46648 0.73516,0.51137 0.31363,0.0449 0.60988,0.28963 0.65834,0.54387 0.16909,0.88722 -2.14288,1.29365 -3.94582,0.69365 -1.06743,-0.35523 -3.14834,-2.27035 -3.14834,-2.89751 0,-0.24245 -0.18622,-0.9618 -0.41383,-1.59856 -0.53957,-1.50953 -1.16195,-6.16948 -1.1685,-8.7489 -0.003,-1.1192 -0.11899,-2.10526 -0.25811,-2.19124 -0.13912,-0.086 -2.08731,-0.0125 -4.32932,0.1633 l -4.07637,0.31963 -0.1695,2.40077 c -0.33434,4.7354 -0.95719,8.29738 -1.7405,9.9537 -0.99587,2.10576 -1.24923,2.36895 -2.28044,2.36895 -0.48292,0 -0.95161,0.11906 -1.04155,0.26459 -0.22224,0.35959 -2.43758,0.33696 -2.66264,-0.0272 z m -136.814699,-1.158 c -7.648702,-1.38793 -13.191269,-5.87497 -14.776954,-11.96282 -0.217068,-0.83339 -0.39467,-1.96648 -0.39467,-2.51799 0,-1.1822 -0.103362,-1.20295 -2.4124667,-0.48427 -0.9162243,0.28516 -1.7003922,0.48394 -1.7425951,0.44174 -0.159014,-0.15901 2.4760389,-1.1992 3.4274578,-1.35298 0.851305,-0.13761 0.992187,-0.25816 0.992187,-0.84901 v -0.68864 l -2.4473959,0.15609 c -1.8375744,0.11719 -2.3203236,0.0842 -1.9374173,-0.13256 0.2804883,-0.15875 1.4427246,-0.36019 2.5827475,-0.44765 l 2.0727687,-0.15901 0.744076,-1.5842 0.744077,-1.5842 -1.020258,-2.17717 c -2.5452622,-5.43145 -2.5752535,-9.3388 -0.07168,-9.3388 1.264708,0 4.225447,1.61191 6.53242,3.55643 l 2.039963,1.71947 1.687926,-0.63533 c 4.916651,-1.85063 10.582293,-1.93543 15.985482,-0.23927 2.469899,0.77535 1.828736,0.97389 5.064472,-1.56829 4.576095,-3.59525 7.445737,-3.73936 7.445737,-0.37392 0,1.73941 -0.636087,4.0957 -1.782924,6.60457 l -0.94344,2.06392 0.89667,1.84454 0.89667,1.84454 1.458701,0.0201 c 0.802283,0.0111 1.875417,0.17864 2.38474,0.37238 0.851366,0.32384 0.739354,0.34038 -1.389063,0.20515 -2.168657,-0.13779 -2.315104,-0.11448 -2.315104,0.36846 0,0.7026 0.503135,1.15055 1.292299,1.15055 0.632362,0 3.064569,1.02299 2.877341,1.21022 -0.05022,0.0502 -0.840949,-0.14201 -1.757174,-0.42717 -0.916223,-0.28516 -1.774317,-0.51848 -1.906871,-0.51848 -0.132556,0 -0.241011,0.45124 -0.241011,1.00275 0,1.38225 -0.67169,3.87125 -1.514433,5.61184 -0.431819,0.89187 -1.47855,2.22633 -2.703923,3.44719 -4.682821,4.66555 -12.348951,6.76811 -19.768354,5.42178 z m 6.251008,-3.43969 c 0.15026,-0.0929 0.273201,-0.40516 0.273201,-0.69399 0,-0.3393 0.151366,-0.49764 0.427705,-0.44741 0.627779,0.11411 1.864997,-2.46448 2.247765,-4.68476 0.175612,-1.01864 0.433956,-2.00091 0.574101,-2.18281 0.364185,-0.4727 0.06756,-0.40959 -0.928072,0.19745 -1.160851,0.70777 -2.558105,0.67627 -3.671435,-0.0828 l -0.899022,-0.61294 -0.743159,0.5419 c -0.95137,0.69373 -2.369934,0.6642 -3.828079,-0.0797 -1.114886,-0.56877 -1.553874,-0.36964 -0.629706,0.28564 0.301668,0.2139 0.651399,1.07457 0.917162,2.2571 0.515245,2.2926 1.365031,4.05452 2.040742,4.23123 0.271434,0.071 0.529969,0.38481 0.574527,0.6974 0.144119,1.01105 2.369701,1.36139 3.64427,0.57366 z m 106.876331,1.11784 c -1.35827,-1.17712 -2.29632,-3.41725 -2.58241,-6.167 l -0.19095,-1.83533 -1.04376,2.11667 c -1.41784,2.8753 -3.06505,4.52247 -4.77969,4.7796 -1.88559,0.28276 -2.93743,-0.36152 -3.91549,-2.39835 -0.41926,-0.87313 -0.8217,-2.09352 -0.8943,-2.71198 -0.0726,-0.61847 -0.21354,-1.12448 -0.31318,-1.12448 -0.0996,0 -0.38285,0.42292 -0.62935,0.93983 -0.55089,1.15523 -2.68403,3.47168 -3.66326,3.97806 -0.81172,0.41976 -3.0372,0.49668 -3.9816,0.13762 -1.01837,-0.38718 -2.52631,-2.5668 -2.88515,-4.17028 -0.6984,-3.1208 0.6956,-7.45243 3.02497,-9.39954 1.63007,-1.36256 2.64142,-1.80692 4.50963,-1.98137 1.65913,-0.15494 1.67094,-0.15115 2.63837,0.84498 0.53449,0.55034 0.97179,1.10142 0.97179,1.22462 0,0.1232 0.11062,0.22399 0.24581,0.22399 0.1352,0 0.43178,-0.62507 0.65907,-1.38906 0.64474,-2.16712 0.67687,-2.18903 2.1664,-1.47746 0.71101,0.33966 1.44018,0.91522 1.62038,1.27902 0.22289,0.45 0.33256,2.22628 0.34305,5.55625 0.0203,6.45484 0.31388,7.94829 1.4871,7.56589 1.04877,-0.34185 4.63972,-7.66818 4.94036,-10.07943 0.0907,-0.7276 0.24049,-1.75189 0.33282,-2.27619 l 0.16787,-0.95328 -1.67412,0.0272 c -1.29955,0.0211 -1.69237,-0.0626 -1.75565,-0.37428 -0.10577,-0.52092 1.2153,-1.29367 2.62221,-1.53385 l 1.10666,-0.18892 0.55712,-2.24515 c 0.87181,-3.51341 1.5232,-4.47236 2.81733,-4.14756 0.35038,0.0879 1.03051,0.67102 1.51141,1.29573 0.77551,1.00744 0.86719,1.30035 0.81099,2.59105 l -0.0634,1.45521 h 1.6782 c 2.65938,0 2.4127,0.67443 -0.62423,1.70671 -1.2551,0.42663 -1.36706,0.53551 -1.53557,1.4934 -0.1,0.56828 -0.26716,3.95386 -0.37156,7.52351 -0.19897,6.80335 -0.0968,7.66492 0.90919,7.66492 0.85793,0 1.83662,-1.40933 4.09495,-5.89682 1.73629,-3.45014 2.54027,-4.74948 3.60168,-5.82083 1.71698,-1.73304 1.69751,-1.67623 -1.96525,5.73366 -2.95566,5.97942 -3.83398,7.28817 -5.44166,8.10834 -1.45527,0.74242 -3.60479,0.70659 -4.50682,-0.0751 z m -17.26302,-4.93177 c 0.63089,-0.46813 1.83219,-2.20774 2.86184,-4.14425 1.0468,-1.96876 0.88929,-4.01221 -0.46279,-6.00391 -0.34765,-0.51211 -0.72052,-0.72761 -1.25897,-0.72761 -2.11693,0 -4.52626,5.39672 -4.13426,9.26042 0.22965,2.26343 1.32463,2.85417 2.99418,1.61535 z"
       id="path3724"
       inkscape:connector-curvature="0"
       sodipodi:nodetypes="ssssssccsscccccccccccccccccsccccccsccccsscccccsccccccsccscccccsccccccscscccccscsscccccccscscccscscccccscsccscccccccccccccccccsscccccccscccccscccscccccccssccccsscccccccsscssscccccscccccccccccscccscccccscccscccsscscccccccccccccccsccssccccccccsscc" />
  </g>
  <g
     inkscape:groupmode="layer"
     id="layer2"
     inkscape:label="Layer 2"
     transform="translate(-6.4365001,-181.75506)" />
</svg>
